<svg xmlns="http://www.w3.org/2000/svg" viewBox="0 0 320 500" role="img" aria-label="Top-right royal gold floral ornament">
  <defs>
    <linearGradient id="topGold" x1="0" y1="0" x2="1" y2="1">
      <stop offset="0" stop-color="#F5E6B3"/>
      <stop offset="0.28" stop-color="#F6C453"/>
      <stop offset="0.62" stop-color="#D4AF37"/>
      <stop offset="1" stop-color="#F5E6B3"/>
    </linearGradient>
    <linearGradient id="topStemGold" x1="0" y1="0" x2="0" y2="1">
      <stop offset="0" stop-color="#F5E6B3" stop-opacity="0.72"/>
      <stop offset="0.35" stop-color="#F6C453" stop-opacity="0.7"/>
      <stop offset="1" stop-color="#D4AF37" stop-opacity="0.44"/>
    </linearGradient>
    <radialGradient id="topPetalGold" cx="42%" cy="35%" r="70%">
      <stop offset="0" stop-color="#F5E6B3"/>
      <stop offset="0.32" stop-color="#F6C453"/>
      <stop offset="0.75" stop-color="#D4AF37"/>
      <stop offset="1" stop-color="#D4AF37" stop-opacity="0.32"/>
    </radialGradient>
    <path id="topLeaf" d="M0 0 C17 -22 42 -24 62 -6 C41 -1 23 13 0 0 Z"/>
    <path id="topLongLeaf" d="M0 0 C11 -34 42 -54 76 -43 C53 -23 37 -4 0 0 Z"/>
    <path id="topBud" d="M0 -16 C10 -11 14 1 8 12 C2 22 -10 18 -13 7 C-16 -4 -10 -12 0 -16 Z"/>
    <g id="topFlower">
      <path d="M0 -30 C15 -23 19 -4 5 5 C24 4 35 18 23 31 C11 43 -4 32 -5 14 C-11 32 -29 39 -38 24 C-47 9 -31 -3 -13 2 C-26 -10 -23 -28 -7 -33 C-4 -34 -2 -32 0 -30 Z" fill="url(#topPetalGold)" stroke="#F5E6B3" stroke-width="1.1"/>
      <path d="M4 -17 C10 -7 8 4 0 10 M14 13 C3 13 -5 8 -8 0 M-21 18 C-14 8 -5 4 6 5 M-14 -17 C-8 -10 -7 -2 -10 7" fill="none" stroke="#F5E6B3" stroke-width="0.7" opacity="0.62"/>
      <circle cx="0" cy="2" r="8.2" fill="#F6C453" opacity="0.9"/>
      <circle cx="0" cy="2" r="3.6" fill="#F5E6B3" opacity="0.88"/>
      <g fill="#F5E6B3" opacity="0.82">
        <circle cx="-6" cy="-2" r="1.1"/><circle cx="6" cy="-2" r="1.1"/><circle cx="-4" cy="7" r="1"/><circle cx="5" cy="7" r="1"/><circle cx="0" cy="-6" r="0.9"/>
      </g>
    </g>
    <g id="topSmallFlower">
      <path d="M0 -18 C8 -12 9 -3 3 2 C13 1 19 9 12 17 C4 25 -4 17 -4 7 C-8 18 -18 21 -23 12 C-28 3 -19 -3 -8 0 C-15 -8 -12 -18 -2 -20 Z" fill="url(#topPetalGold)" stroke="#F5E6B3" stroke-width="0.75"/>
      <circle cx="0" cy="1" r="4.8" fill="#F6C453"/>
      <circle cx="0" cy="1" r="1.9" fill="#F5E6B3"/>
    </g>
  </defs>

  <g fill="none" stroke-linecap="round" stroke-linejoin="round">
    <path d="M309 -17 C284 51 285 105 301 174 C315 236 300 316 248 381 C225 410 197 436 170 482" stroke="url(#topStemGold)" stroke-width="2.15" opacity="0.86"/>
    <path d="M278 -5 C254 69 246 128 261 196 C275 259 255 332 209 391" stroke="url(#topStemGold)" stroke-width="1.35" opacity="0.7"/>
    <path d="M324 36 C289 82 260 119 218 157 C178 193 157 230 145 278" stroke="url(#topStemGold)" stroke-width="1.35" opacity="0.72"/>
    <path d="M318 126 C280 142 249 169 222 209 C195 249 161 276 122 292" stroke="url(#topStemGold)" stroke-width="1.25" opacity="0.7"/>
    <path d="M297 232 C254 243 214 266 183 306 C156 341 126 364 86 376" stroke="url(#topStemGold)" stroke-width="1.2" opacity="0.62"/>
    <path d="M260 351 C226 355 192 373 166 405 C145 431 124 454 92 469" stroke="url(#topStemGold)" stroke-width="1.05" opacity="0.54"/>

    <g stroke="url(#topGold)" stroke-width="0.85" opacity="0.64">
      <path d="M296 48 C267 79 243 106 217 143"/>
      <path d="M288 83 C307 99 318 120 320 150"/>
      <path d="M266 169 C291 178 306 197 314 224"/>
      <path d="M234 277 C266 286 285 307 293 337"/>
      <path d="M198 387 C225 395 242 412 252 439"/>
      <path d="M215 158 C195 147 174 146 154 156"/>
      <path d="M181 309 C157 300 132 302 109 316"/>
    </g>

    <g fill="url(#topGold)" stroke="#F5E6B3" stroke-width="0.55" opacity="0.9">
      <use href="#topLongLeaf" transform="translate(283 43) rotate(116) scale(0.78)"/>
      <use href="#topLeaf" transform="translate(270 77) rotate(-54) scale(0.62)"/>
      <use href="#topLeaf" transform="translate(293 111) rotate(126) scale(0.58)"/>
      <use href="#topLongLeaf" transform="translate(242 133) rotate(-42) scale(0.64)"/>
      <use href="#topLeaf" transform="translate(264 166) rotate(130) scale(0.55)"/>
      <use href="#topLeaf" transform="translate(221 177) rotate(-38) scale(0.56)"/>
      <use href="#topLongLeaf" transform="translate(286 214) rotate(132) scale(0.68)"/>
      <use href="#topLeaf" transform="translate(235 240) rotate(-54) scale(0.5)"/>
      <use href="#topLeaf" transform="translate(252 272) rotate(124) scale(0.48)"/>
      <use href="#topLongLeaf" transform="translate(198 309) rotate(-42) scale(0.56)"/>
      <use href="#topLeaf" transform="translate(177 337) rotate(-18) scale(0.44)"/>
      <use href="#topLeaf" transform="translate(225 357) rotate(136) scale(0.52)"/>
      <use href="#topLongLeaf" transform="translate(165 409) rotate(-50) scale(0.48)"/>
      <use href="#topLeaf" transform="translate(136 437) rotate(-22) scale(0.42)"/>
      <use href="#topLeaf" transform="translate(202 428) rotate(132) scale(0.42)"/>
    </g>

    <g>
      <use href="#topFlower" transform="translate(262 70) rotate(-18) scale(0.82)"/>
      <use href="#topFlower" transform="translate(287 190) rotate(18) scale(0.68)"/>
      <use href="#topFlower" transform="translate(205 286) rotate(-26) scale(0.64)"/>
      <use href="#topFlower" transform="translate(149 392) rotate(-10) scale(0.55)"/>
      <use href="#topSmallFlower" transform="translate(224 137) rotate(24) scale(0.78)"/>
      <use href="#topSmallFlower" transform="translate(306 251) rotate(-12) scale(0.68)"/>
      <use href="#topSmallFlower" transform="translate(158 240) rotate(30) scale(0.62)"/>
      <use href="#topSmallFlower" transform="translate(101 366) rotate(-22) scale(0.58)"/>
      <use href="#topSmallFlower" transform="translate(106 466) rotate(16) scale(0.48)"/>
    </g>

    <g fill="url(#topGold)" stroke="#F5E6B3" stroke-width="0.48" opacity="0.78">
      <use href="#topBud" transform="translate(306 22) rotate(24) scale(0.58)"/>
      <use href="#topBud" transform="translate(247 103) rotate(-42) scale(0.48)"/>
      <use href="#topBud" transform="translate(319 146) rotate(32) scale(0.46)"/>
      <use href="#topBud" transform="translate(191 158) rotate(-76) scale(0.44)"/>
      <use href="#topBud" transform="translate(307 323) rotate(42) scale(0.45)"/>
      <use href="#topBud" transform="translate(126 299) rotate(-76) scale(0.42)"/>
      <use href="#topBud" transform="translate(246 450) rotate(42) scale(0.4)"/>
      <use href="#topBud" transform="translate(78 383) rotate(-68) scale(0.38)"/>
    </g>

    <g stroke="#F5E6B3" stroke-width="0.55" opacity="0.34">
      <path d="M318 70 C297 115 288 152 294 197"/>
      <path d="M284 17 C267 58 263 98 272 138"/>
      <path d="M245 184 C230 219 206 251 170 280"/>
      <path d="M238 340 C213 365 193 394 179 431"/>
      <path d="M139 269 C116 285 96 302 78 324"/>
    </g>
    <g fill="#F6C453">
      <circle cx="303" cy="54" r="1.4" opacity="0.78"/><circle cx="237" cy="96" r="1.1" opacity="0.68"/><circle cx="298" cy="132" r="0.9" opacity="0.58"/><circle cx="216" cy="202" r="1.2" opacity="0.62"/><circle cx="312" cy="284" r="1.3" opacity="0.54"/><circle cx="176" cy="325" r="0.9" opacity="0.58"/><circle cx="221" cy="401" r="1.1" opacity="0.52"/><circle cx="121" cy="440" r="0.9" opacity="0.56"/>
    </g>
  </g>
</svg>
