<svg xmlns="http://www.w3.org/2000/svg" viewBox="0 0 430 1538" role="img" aria-label="Subtle atmospheric gold dust particles">
  <defs>
    <radialGradient id="dustSoft" cx="50%" cy="50%" r="50%">
      <stop offset="0" stop-color="#F5E6B3"/>
      <stop offset="0.44" stop-color="#F6C453" stop-opacity="0.8"/>
      <stop offset="1" stop-color="#D4AF37" stop-opacity="0"/>
    </radialGradient>
  </defs>
  <g fill="url(#dustSoft)">
    <circle cx="83" cy="42" r="1.4" opacity="0.54"/><circle cx="112" cy="76" r="2.4" opacity="0.42"/><circle cx="161" cy="31" r="1.1" opacity="0.46"/><circle cx="224" cy="88" r="1.8" opacity="0.34"/><circle cx="310" cy="54" r="2.1" opacity="0.3"/><circle cx="354" cy="132" r="1.2" opacity="0.38"/>
    <circle cx="42" cy="188" r="1.7" opacity="0.42"/><circle cx="97" cy="232" r="2.8" opacity="0.28"/><circle cx="141" cy="166" r="1.2" opacity="0.48"/><circle cx="271" cy="211" r="1.5" opacity="0.36"/><circle cx="329" cy="178" r="2.2" opacity="0.26"/><circle cx="386" cy="244" r="1.3" opacity="0.42"/>
    <circle cx="61" cy="326" r="2.1" opacity="0.34"/><circle cx="118" cy="381" r="1.1" opacity="0.5"/><circle cx="188" cy="338" r="1.5" opacity="0.36"/><circle cx="246" cy="402" r="2.6" opacity="0.24"/><circle cx="304" cy="319" r="1.3" opacity="0.46"/><circle cx="376" cy="366" r="1.8" opacity="0.32"/>
    <circle cx="34" cy="504" r="1.2" opacity="0.44"/><circle cx="83" cy="457" r="2" opacity="0.28"/><circle cx="137" cy="542" r="1.6" opacity="0.4"/><circle cx="209" cy="486" r="1.1" opacity="0.5"/><circle cx="292" cy="536" r="2.4" opacity="0.24"/><circle cx="399" cy="482" r="1.7" opacity="0.36"/>
    <circle cx="50" cy="666" r="2.8" opacity="0.26"/><circle cx="121" cy="622" r="1.5" opacity="0.42"/><circle cx="176" cy="704" r="2.1" opacity="0.3"/><circle cx="238" cy="638" r="1.3" opacity="0.44"/><circle cx="333" cy="682" r="1.9" opacity="0.34"/><circle cx="388" cy="724" r="1.1" opacity="0.48"/>
    <circle cx="29" cy="825" r="1.4" opacity="0.44"/><circle cx="92" cy="771" r="1.8" opacity="0.36"/><circle cx="154" cy="854" r="2.5" opacity="0.25"/><circle cx="211" cy="808" r="1.2" opacity="0.42"/><circle cx="286" cy="886" r="1.7" opacity="0.34"/><circle cx="366" cy="832" r="2.2" opacity="0.28"/>
    <circle cx="67" cy="1002" r="2.1" opacity="0.34"/><circle cx="128" cy="943" r="1.2" opacity="0.46"/><circle cx="193" cy="1028" r="1.7" opacity="0.32"/><circle cx="257" cy="971" r="2.6" opacity="0.22"/><circle cx="317" cy="1044" r="1.3" opacity="0.46"/><circle cx="401" cy="986" r="1.8" opacity="0.34"/>
    <circle cx="38" cy="1168" r="1.6" opacity="0.4"/><circle cx="102" cy="1215" r="2.7" opacity="0.24"/><circle cx="171" cy="1136" r="1.1" opacity="0.5"/><circle cx="232" cy="1196" r="1.9" opacity="0.32"/><circle cx="306" cy="1149" r="1.4" opacity="0.44"/><circle cx="372" cy="1228" r="2.2" opacity="0.28"/>
    <circle cx="54" cy="1356" r="2.4" opacity="0.28"/><circle cx="119" cy="1304" r="1.3" opacity="0.44"/><circle cx="183" cy="1398" r="1.8" opacity="0.34"/><circle cx="263" cy="1332" r="1.1" opacity="0.48"/><circle cx="329" cy="1426" r="2.8" opacity="0.22"/><circle cx="392" cy="1368" r="1.6" opacity="0.38"/>
  </g>
  <g fill="#F6C453">
    <circle cx="77" cy="92" r="0.65" opacity="0.64"/><circle cx="188" cy="134" r="0.55" opacity="0.56"/><circle cx="352" cy="298" r="0.65" opacity="0.5"/><circle cx="74" cy="420" r="0.55" opacity="0.58"/><circle cx="333" cy="578" r="0.7" opacity="0.52"/><circle cx="115" cy="746" r="0.55" opacity="0.6"/><circle cx="389" cy="919" r="0.7" opacity="0.5"/><circle cx="59" cy="1097" r="0.6" opacity="0.54"/><circle cx="285" cy="1272" r="0.55" opacity="0.56"/><circle cx="155" cy="1473" r="0.65" opacity="0.48"/>
  </g>
</svg>
